<svg xmlns="http://www.w3.org/2000/svg" viewBox="0 0 20 23">
    <path fill="#FFF" fill-rule="nonzero"
          d="M10.625 21.203H3.571a1.793 1.793 0 0 1-1.785-1.797V12.04c0-.99.8-1.797 1.785-1.797H16.43c.984 0 1.785.806 1.785 1.797v1.797c0 .496.4.898.893.898a.896.896 0 0 0 .893-.898v-1.797c0-1.982-1.602-3.594-3.571-3.594h-1.074V5.277C15.355 2.367 12.952 0 9.998 0S4.641 2.367 4.641 5.277v3.168h-1.07C1.602 8.445 0 10.057 0 12.04v7.367C0 21.388 1.602 23 3.571 23h7.054a.896.896 0 0 0 .893-.898c0-.497-.4-.899-.893-.899zM7 5.663C7 3.644 8.346 2 10 2s3 .644 3 2.664h2.343V8H7V5.664z"/>
</svg>