<svg width="25px" height="26px" viewBox="0 0 25 26" version="1.1" xmlns="http://www.w3.org/2000/svg"
     xmlns:xlink="http://www.w3.org/1999/xlink">
    <g id="Welcome" stroke="none" stroke-width="1" fill="none" fill-rule="evenodd">
        <g id="Home-SignUp" transform="translate(-22.000000, -158.000000)" fill="#FFFFFF" fill-rule="nonzero">
            <path d="M40,165.999996 C40,165.447189 39.471933,165 38.8191468,165 L28.1808532,165 C27.528067,165 27,165.447189 27,165.999996 C27,166.552802 27.528067,166.999992 28.1808532,166.999992 L38.8191468,166.999992 C39.471933,167.002239 40,166.552802 40,165.999996 L40,165.999996 Z M28.2489475,170 C27.5585181,170 27,170.446188 27,170.997758 L27,171.002242 C27,171.553812 27.5585181,172 28.2489475,172 L35.7510525,172 C36.4414819,172 37,171.553812 37,171.002242 L37,170.997758 C37,170.446188 36.4414819,170 35.7510525,170 L28.2489475,170 L28.2489475,170 Z M28.6576087,181.636122 L27.4483696,181.636122 C25.7771739,181.636122 24.4211957,180.312245 24.4211957,178.680612 L24.4211957,163.319388 C24.4211957,161.687755 25.7771739,160.363878 27.4483696,160.363878 L39.5543478,160.363878 C41.2255435,160.363878 42.5815217,161.687755 42.5815217,163.319388 L42.5815217,166.274898 C42.5815217,166.927551 43.1222826,167.45551 43.7907609,167.45551 C44.4592391,167.45551 45,166.927551 45,166.274898 L45,162.727755 C45,160.117143 42.8315217,158 40.1576087,158 L26.8423913,158 C24.1684783,158 22,160.117143 22,162.727755 L22,179.272245 C22,181.882857 24.1684783,184 26.8423913,184 L28.6576087,184 C29.326087,184 29.8668478,183.472041 29.8668478,182.819388 C29.8695652,182.164082 29.326087,181.636122 28.6576087,181.636122 L28.6576087,181.636122 Z M45.9767705,171.016921 C44.6124646,169.661026 42.4020774,169.661026 41.0377715,171.016921 L33.4098206,178.474339 L33.4177526,178.482191 C33.1639282,178.694213 33,179.00832 33,179.364308 L33,182.840423 C33,183.479106 33.5208687,184 34.1633617,184 L34.1633617,184 L37.6560907,184 C38.0844193,184 38.4545798,183.767037 38.6555241,183.426755 L38.6608121,183.43199 L45.9767705,175.937927 C47.3410765,174.57418 47.3410765,172.372815 45.9767705,171.016921 L45.9767705,171.016921 Z M43.6714771,173.901125 L36.7419355,181 L35,181 L35,179.251695 L42.0848896,172.326392 C42.5229202,171.891203 43.2334465,171.891203 43.6714771,172.326392 C44.1095076,172.761582 44.1095076,173.468451 43.6714771,173.901125 L43.6714771,173.901125 Z M31.8005391,175 L28.1994609,175 C27.5363881,175 27,175.446689 27,175.998878 C27,176.551066 27.5363881,177 28.1994609,177 L31.8005391,177 C32.4636119,177 33,176.553311 33,175.998878 C33,175.448934 32.4636119,175 31.8005391,175 L31.8005391,175 Z"
                  id="SignUp"></path>
        </g>
    </g>
</svg>