<svg width="12px" height="13px" viewBox="0 0 12 13" version="1.1" xmlns="http://www.w3.org/2000/svg"
     xmlns:xlink="http://www.w3.org/1999/xlink">
    <g id="Welcome" stroke="none" stroke-width="1" fill="none" fill-rule="evenodd">
        <g id="Home-Login" transform="translate(-296.000000, -14.000000)" fill="#FFFFFF" fill-rule="nonzero">
            <path d="M302.400682,21.7376573 L298.631651,25.8791609 C298.345131,26.1939966 297.765446,26.0848732 297.327361,25.6336333 C296.889275,25.1823934 296.771843,24.5653351 297.058364,24.2504995 L300.872946,20.0589431 L297.054544,15.863189 C296.768023,15.5483533 296.889275,14.9354929 297.327361,14.4842529 C297.765446,14.033013 298.345131,13.9238896 298.631651,14.2387253 L302.400682,18.3802289 L306.169713,14.2387253 C306.456233,13.9238896 307.035918,14.033013 307.474003,14.4842529 C307.912089,14.9354929 308.033341,15.5483533 307.746821,15.863189 L303.928418,20.0589431 L307.743,24.2504995 C308.029521,24.5653351 307.912089,25.1823934 307.474003,25.6336333 C307.035918,26.0848732 306.456233,26.1939966 306.169713,25.8791609 L302.400682,21.7376573 Z"
                  id="delete-copy-2"></path>
        </g>
    </g>
</svg>