<svg xmlns="http://www.w3.org/2000/svg" width="25" height="26">
    <path fill="#FFF" fill-rule="nonzero"
          d="M18 8c0-.553-.528-1-1.18-1H6.18C5.529 7 5 7.447 5 8c0 .553.528 1 1.18 1h10.64c.652.002 1.18-.447 1.18-1zM6.249 12c-.69 0-1.249.446-1.249.998v.004c0 .552.559.998 1.249.998h7.502c.69 0 1.249-.446 1.249-.998v-.004c0-.552-.559-.998-1.249-.998H6.25zm.409 11.636h-1.21c-1.67 0-3.027-1.324-3.027-2.955V5.319c0-1.631 1.356-2.955 3.027-2.955h12.106c1.672 0 3.028 1.324 3.028 2.955v2.956c0 .653.54 1.18 1.209 1.18.668 0 1.209-.527 1.209-1.18V4.728C23 2.118 20.832 0 18.158 0H4.842C2.168 0 0 2.117 0 4.728v16.544C0 23.882 2.168 26 4.842 26h1.816c.668 0 1.209-.528 1.209-1.18.003-.656-.54-1.184-1.21-1.184zm17.319-10.62a3.507 3.507 0 0 0-4.94 0l-7.627 7.458.008.008a1.145 1.145 0 0 0-.418.882v3.476c0 .64.52 1.16 1.163 1.16h3.493a1.16 1.16 0 0 0 1-.573l.005.005 7.316-7.494a3.47 3.47 0 0 0 0-4.921zm-2.306 2.885L14.741 23H13v-1.748l7.085-6.926a1.127 1.127 0 0 1 1.586 0 1.108 1.108 0 0 1 0 1.575zM9.801 17H6.199C5.536 17 5 17.447 5 17.999S5.536 19 6.2 19h3.6c.664 0 1.2-.447 1.2-1.001 0-.55-.536-.999-1.2-.999z"/>
</svg>