<svg xmlns="http://www.w3.org/2000/svg" width="99" height="99">
    <g fill="none" fill-rule="evenodd" transform="translate(2 2)">
        <circle cx="47.5" cy="47.5" r="48.5" fill="#FFF" stroke="#68C20C" stroke-width="2"/>
        <g fill-rule="nonzero" transform="translate(8 11)">
            <path fill="#78B9EB"
                  d="M57.607 25.432l-1.17 3.449c-1.327 3.916-5.649 6.045-9.605 4.73l-2.837-.944L24.17 26.08c-3.956-1.315-6.105-5.595-4.779-9.511l1.17-3.449c.804-2.374 2.71-4.09 4.964-4.781a7.595 7.595 0 0 1 4.642.05L52.83 15.92c3.955 1.315 6.105 5.594 4.777 9.511z"/>
            <path fill="#5AAAE7"
                  d="M46 31.637L44.478 33l-19.414-6.769c-3.875-1.351-5.979-5.75-4.68-9.774l1.146-3.544c.787-2.44 2.653-4.203 4.861-4.913L46 31.637z"/>
            <path fill="#C70024" d="M42 33.689L28.64 45.254 26.621 47 2 18.313l2.02-1.747L17.38 5z"/>
            <path fill="#FF0C38" d="M42 32.795L28.984 44 5 16.205 18.016 5z"/>
            <path fill="#A5001E"
                  d="M18.37 6.603L3.353 19.56A1.83 1.83 0 0 1 .78 19.37l-.34-.396a1.833 1.833 0 0 1 .191-2.575l1.188-1.025L15.647 3.44a1.826 1.826 0 0 1 2.574.191l.338.396c.655.76.57 1.92-.19 2.575z"/>
            <path fill="#C70024"
                  d="M18 3.61L4.49 15.558A1.753 1.753 0 0 1 2 15.39l13.508-11.95A1.753 1.753 0 0 1 18 3.61z"/>
            <circle cx="20" cy="23" r="7" fill="#A5001E"/>
            <path fill="#FFCD00"
                  d="M24.529 22.193l-1.243-.978.41-1.686a1.236 1.236 0 0 0-2.4-.585l-.276 1.137a6.947 6.947 0 0 0-1.625-.2c-1.588 0-3.788.597-5.257 3.437-.279.54-.124 1.203.365 1.563.155.115 1.572 1.119 3.421 1.119 1.25 0 2.925-.462 4.324-2.457l.753.593a1.232 1.232 0 0 0 1.734-.207 1.237 1.237 0 0 0-.206-1.736zm-6.605 1.335a3.11 3.11 0 0 1-.875-.134c.632-.698 1.407-1.04 2.346-1.04.216 0 .425.018.62.047-.61.749-1.31 1.127-2.09 1.127z"/>
            <path fill="#FF728B"
                  d="M74.28 7.102L57.572.216c-1.43-.589-3.077.068-3.68 1.467l-2.322 5.4-6.833 5.343a5.942 5.942 0 0 0-.653.593 5.995 5.995 0 0 0-1.175 1.773L37.326 27.77c-.889 2.067.102 4.447 2.214 5.318l3.936 1.622 19.345 7.97c2.112.871 4.545-.1 5.434-2.166l5.587-12.989c.395-.918.551-1.919.453-2.91l-.838-8.513 2.322-5.4c.602-1.4-.07-3.011-1.499-3.6z"/>
            <path fill="#FF3F62"
                  d="M63.441 44.668L44 36.385l7.228-17.375a6.246 6.246 0 0 1 1.837-2.458L59.932 11l14.197 6.049.842 8.845a6.318 6.318 0 0 1-.455 3.025l-5.615 13.497c-.893 2.148-3.338 3.157-5.46 2.252z"/>
            <path fill="#FF728B"
                  d="M73 16.147l-6.81 5.51c-.222.18-.429.373-.62.579a6.042 6.042 0 0 0-1.152 1.754L57.096 41l-18.518-7.626c-2.144-.882-3.15-3.296-2.247-5.393l5.666-13.163a6.08 6.08 0 0 1 1.192-1.798c.204-.215.427-.417.663-.602L50.787 7 73 16.147z"/>
            <path fill="#FFA5B5"
                  d="M66 22.195a6.053 6.053 0 0 0-1.108 1.75L61.549 32 40 22.797l3.322-8.003A6.089 6.089 0 0 1 44.469 13L66 22.195z"/>
            <path fill="#FF0C38"
                  d="M73.973 24.86L73.16 16l-6.49 5.656a6.28 6.28 0 0 0-1.69 2.395l-6.98 17.457 4.87 2.16c2.044.906 4.399-.105 5.258-2.255l5.406-13.522a6.565 6.565 0 0 0 .439-3.03z"/>
            <g fill="#FF3F62">
                <path d="M52.936 24.387c.055 1.403-1.313 2.454-2.617 1.968a2.038 2.038 0 0 1-.176-.076c-1.256-.602-1.468-2.325-.436-3.266l2.291-2.089a.487.487 0 0 1 .815.347l.123 3.116zM54.882 9.961l-.07.173-6.74 5.44a6.132 6.132 0 0 0-1.802 2.409l-6.965 16.872-.67-.285c-2.082-.885-3.06-3.308-2.183-5.413l5.505-13.212a6.128 6.128 0 0 1 1.804-2.409L50.498 8.1c0-.002.002-.002.002-.002l4.382 1.864z"/>
            </g>
            <path fill="#FF728B"
                  d="M48 15.937a6.288 6.288 0 0 0-1.3 1.993L43.43 26 39 24.082l3.368-8.236A6.283 6.283 0 0 1 43.532 14L48 15.937z"/>
            <path fill="#FF3F62"
                  d="M73.397 17L51 8.038l2.377-5.366c.616-1.39 2.302-2.043 3.765-1.457L74.24 8.057c1.463.585 2.15 2.187 1.534 3.577L73.397 17z"/>
            <path fill="#FF0C38" d="M60 .958L56.57 9 52 7.151 54.388 1.7c.62-1.413 2.314-2.076 3.785-1.482L60 .958z"/>
            <path fill="#7ED63E"
                  d="M76 34L64.336 69.463A3.71 3.71 0 0 1 60.804 72H19.387a3.711 3.711 0 0 1-3.527-2.521L4 34h72z"/>
            <path fill="#A4E276"
                  d="M75 34L63.338 69.463A3.71 3.71 0 0 1 59.807 72H25.383a3.71 3.71 0 0 1-3.526-2.521L10 34h65z"/>
            <path fill="#5EAC24"
                  d="M76.768 33.494a1.223 1.223 0 0 0-.985-.494H11.228c-.672 0-1.217.536-1.217 1.198 0 .661.545 1.198 1.217 1.198h62.88L69.722 48.67H62.53l1.967-9.096a1.198 1.198 0 0 0-.937-1.42 1.216 1.216 0 0 0-1.443.921l-2.075 9.595h-8.196l.83-9.24c.06-.659-.435-1.24-1.104-1.299a1.212 1.212 0 0 0-1.32 1.088l-.85 9.45h-8.185v-9.344c0-.662-.545-1.198-1.217-1.198s-1.217.536-1.217 1.198v9.345h-7.915l-.85-9.451a1.213 1.213 0 0 0-1.319-1.088c-.67.059-1.164.64-1.105 1.3l.831 9.239h-1.488c-.672 0-1.217.536-1.217 1.198 0 .661.545 1.198 1.217 1.198h1.703l.767 8.522h-6.818l-1.843-8.522h1.324c.672 0 1.217-.537 1.217-1.198 0-.662-.545-1.198-1.217-1.198h-1.842l-2.074-9.595a1.216 1.216 0 0 0-1.443-.922 1.198 1.198 0 0 0-.937 1.421l1.966 9.096h-7.383L5.9 35.396h.46c.673 0 1.218-.537 1.218-1.198 0-.662-.545-1.198-1.217-1.198H4.217c-.39 0-.758.185-.986.496a1.183 1.183 0 0 0-.17 1.078l11.789 35.11C15.515 71.667 17.388 73 19.51 73H60.68c2.132 0 4.008-1.342 4.668-3.338l3.612-10.934a1.194 1.194 0 0 0-.781-1.51 1.221 1.221 0 0 0-1.534.77l-.528 1.601H60.17l1.842-8.522h6.92l-.782 2.364c-.208.63.142 1.305.78 1.51a1.216 1.216 0 0 0 1.533-.769l6.477-19.603c.12-.365.057-.765-.172-1.075zm-27.58 17.573l-.767 8.522h-7.204v-8.522h7.97zm.685 19.537l.775-8.62h6.516l-1.864 8.62h-5.427zm-2.442 0h-6.214v-8.62h6.988l-.774 8.62zm-14.59 0l-.776-8.62h6.718v8.62H32.84zm-1.758-19.537h7.7v8.522H31.85l-.767-8.522zm-1.46 10.917l.774 8.62H24.97l-1.863-8.62h6.515zM18.257 51.067l1.843 8.522h-6.078l-2.861-8.522h7.096zM17.16 68.932l-2.333-6.948h5.792l1.863 8.62H19.51a2.468 2.468 0 0 1-2.35-1.672zm48.164-6.948l-2.291 6.937a2.466 2.466 0 0 1-2.354 1.683h-2.89l1.863-8.62h5.672zm-7.642-2.395h-6.818l.766-8.522h7.895l-1.843 8.522z"/>
            <path fill="#4E901E"
                  d="M80 34c0 1.376-.584 2.626-1.525 3.531A5.279 5.279 0 0 1 74.807 39H5.193C2.337 39 0 36.751 0 34c0-1.374.584-2.625 1.525-3.531A5.279 5.279 0 0 1 5.193 29h69.614c2.759 0 5.034 2.1 5.185 4.722.005.092.008.185.008.279z"/>
            <path fill="#5EAC24" d="M80 33H10.197C7.431 33 5.151 31.22 5 29h69.801c2.766 0 5.048 1.78 5.199 4z"/>
            <path fill="#47821C"
                  d="M44 7.443v24.112c0 .894-.35 1.71-.922 2.324A3.518 3.518 0 0 1 40.5 35c-1.925 0-3.5-1.55-3.5-3.445V7.443C37 5.55 38.575 4 40.5 4a3.513 3.513 0 0 1 2.578 1.121c.572.612.922 1.43.922 2.322z"/>
            <path fill="#4E901E"
                  d="M44 7.422v25.154c0 .932-.38 1.784-1 2.424a3.47 3.47 0 0 1-1-2.424V7.422c0-.93.38-1.783 1-2.422.62.639 1 1.492 1 2.422z"/>
            <circle cx="40" cy="32" r="1" fill="#A4E276"/>
        </g>
    </g>
</svg>