<?xml version="1.0" standalone="no"?>
<!DOCTYPE svg PUBLIC "-//W3C//DTD SVG 20010904//EN"
 "http://www.w3.org/TR/2001/REC-SVG-20010904/DTD/svg10.dtd">
<svg version="1.0" xmlns="http://www.w3.org/2000/svg"
 width="700.000000pt" height="700.000000pt" viewBox="0 0 700.000000 700.000000"
 preserveAspectRatio="xMidYMid meet">
<metadata>
Created by potrace 1.11, written by Peter Selinger 2001-2013
</metadata>
<g transform="translate(0.000000,700.000000) scale(0.100000,-0.100000)"
fill="#000000" stroke="none">
<path d="M4863 6685 c-57 -17 -104 -48 -133 -87 -13 -18 -72 -145 -130 -283
l-105 -250 -298 -239 -298 -238 -44 12 -44 12 -3 267 c-3 252 -4 268 -26 313
-113 238 -450 239 -559 2 -27 -60 -31 -88 -32 -250 l-1 -122 -247 84 c-367
125 -389 131 -518 129 -178 -2 -320 -58 -448 -175 -30 -27 -57 -50 -60 -50 -2
0 -53 56 -111 125 -59 69 -113 131 -119 138 -7 7 -22 24 -35 39 l-23 25 21 41
c42 80 22 162 -56 231 -91 80 -149 67 -305 -67 -63 -54 -251 -217 -419 -361
-168 -145 -330 -285 -360 -311 -30 -26 -124 -107 -209 -181 -85 -74 -173 -150
-195 -169 -71 -61 -75 -65 -91 -103 -29 -70 -12 -132 55 -198 63 -62 132 -76
200 -39 21 11 26 10 48 -16 13 -16 34 -40 46 -54 12 -14 59 -70 106 -125 47
-55 87 -102 91 -105 3 -3 50 -57 104 -120 54 -63 124 -144 155 -180 97 -110
150 -173 147 -176 -2 -2 -124 -4 -273 -4 -148 -1 -294 -6 -324 -12 -121 -22
-254 -118 -314 -227 -74 -137 -68 -330 16 -456 78 -117 189 -190 318 -208 23
-3 31 -21 103 -238 43 -129 129 -389 193 -579 63 -190 116 -352 118 -360 2 -8
86 -262 186 -565 101 -302 213 -643 251 -758 38 -114 79 -228 90 -253 57 -121
197 -218 334 -232 93 -9 3646 -7 3710 2 73 11 173 63 230 121 50 50 91 120
118 205 8 25 40 122 70 215 30 94 97 297 147 453 102 311 104 330 50 375 l-29
25 33 98 32 99 39 2 c72 5 80 20 185 353 29 91 56 174 60 185 8 19 163 496
238 732 l35 112 67 16 c346 85 464 509 212 762 -88 89 -187 128 -337 132 -49
2 -91 4 -92 5 -2 1 6 25 17 54 18 48 35 141 33 187 -1 48 -14 222 -18 245 -2
14 -6 50 -9 80 -9 102 -17 185 -21 220 -2 19 -9 87 -15 150 l-12 115 108 255
c102 241 108 259 108 325 1 76 -15 117 -63 168 -36 39 -41 42 -506 237 -225
95 -516 217 -645 272 -457 194 -467 197 -547 173z"/>
</g>
</svg>
