<svg width="101" height="101" viewBox="0 0 101 101" fill="none" xmlns="http://www.w3.org/2000/svg">
    <path d="M50.5 99C77.2858 99 99 77.2858 99 50.5C99 23.7142 77.2858 2 50.5 2C23.7142 2 2 23.7142 2 50.5C2 77.2858 23.7142 99 50.5 99Z" fill="white" stroke="#68C20C" stroke-width="3"/>
    <path d="M55.9999 48.5987L43.5508 59.3752L41.6694 61.0022L18.727 34.271L20.6093 32.6431L33.0584 21.8657L55.9999 48.5987Z" fill="#348ACC"/>
    <path d="M55.9999 47.7656L43.8713 58.2067L21.5225 32.3067L33.6511 21.8657L55.9999 47.7656Z" fill="#5AAAE7"/>
    <path d="M33.9809 23.3594L19.9878 35.433C19.6458 35.7262 19.2017 35.8721 18.7525 35.8389C18.3033 35.8057 17.8854 35.5962 17.5902 35.256L17.2734 34.887C16.9805 34.5445 16.8348 34.1001 16.8682 33.6506C16.9015 33.2012 17.1111 32.7831 17.4514 32.4876L18.5584 31.5324L31.4436 20.4121C31.7853 20.1178 32.2299 19.9713 32.6797 20.0047C33.1294 20.038 33.5475 20.2486 33.8421 20.5901L34.1571 20.9591C34.7674 21.6672 34.6882 22.7482 33.98 23.3585L33.9809 23.3594Z" fill="#0F7FD5"/>
    <path d="M33.6362 20.5704L21.0473 31.7038C20.8853 31.8472 20.6964 31.9571 20.4917 32.0269C20.2869 32.0967 20.0703 32.1252 19.8544 32.1106C19.6386 32.0961 19.4277 32.0388 19.2342 31.9421C19.0407 31.8453 18.8683 31.7112 18.727 31.5473L31.3141 20.412C31.4762 20.2684 31.6653 20.1585 31.8703 20.0886C32.0753 20.0188 32.2922 19.9904 32.5083 20.0051C32.7244 20.0199 32.9354 20.0774 33.129 20.1745C33.3226 20.2715 33.495 20.4061 33.6362 20.5704Z" fill="#449BDE"/>
    <path d="M35.4998 45.1612C39.1022 45.1612 42.0226 42.2409 42.0226 38.6385C42.0226 35.0361 39.1022 32.1157 35.4998 32.1157C31.8974 32.1157 28.9771 35.0361 28.9771 38.6385C28.9771 42.2409 31.8974 45.1612 35.4998 45.1612Z" fill="#0F7FD5"/>
    <path d="M39.72 37.8865L38.5618 36.9751L38.9438 35.4041C39.0035 35.1121 38.9477 34.8084 38.7882 34.5567C38.6286 34.305 38.3777 34.125 38.0882 34.0544C37.7987 33.9839 37.4931 34.0283 37.2356 34.1783C36.9781 34.3283 36.7888 34.5723 36.7075 34.859L36.4503 35.9184C35.9547 35.7969 35.4464 35.7343 34.9361 35.7321C33.4563 35.7321 31.4063 36.2884 30.0375 38.9348C29.7775 39.4379 29.9219 40.0557 30.3776 40.3912C30.522 40.4984 31.8424 41.4339 33.5654 41.4339C34.7301 41.4339 36.2909 41.0034 37.5946 39.1444L38.2962 39.697C38.4148 39.7907 38.5508 39.8602 38.6963 39.9012C38.8419 39.9423 38.994 39.9542 39.1442 39.9363C39.2943 39.9183 39.4394 39.8709 39.5712 39.7968C39.703 39.7226 39.8188 39.6231 39.912 39.5041C40.1008 39.2641 40.1867 38.9589 40.1507 38.6556C40.1147 38.3523 39.9598 38.0756 39.72 37.8865ZM33.5654 39.1304C33.289 39.1279 33.0145 39.0859 32.75 39.0056C33.3389 38.3552 34.0611 38.0365 34.9361 38.0365C35.1373 38.0365 35.3321 38.0532 35.5138 38.0803C34.9454 38.7782 34.2922 39.1304 33.5654 39.1304Z" fill="#FFCD00"/>
    <path d="M79.7965 24.9714L68.1008 20.1512C67.0998 19.7389 65.9469 20.1988 65.5248 21.1781L63.8993 24.9581L59.1162 28.6983C58.9538 28.8251 58.801 28.9639 58.6591 29.1134C58.3131 29.4747 58.0346 29.8951 57.8366 30.3545L53.9285 39.4392C53.3062 40.8861 53.9999 42.5521 55.4783 43.1618L58.2335 44.2972L71.7751 49.8763C73.2535 50.486 74.9566 49.8063 75.5789 48.36L79.4899 39.2677C79.7664 38.6251 79.8756 37.9244 79.807 37.2306L79.2204 31.2715L80.8458 27.4915C81.2672 26.5115 80.7968 25.3837 79.7965 24.9714Z" fill="#FF728B"/>
    <path d="M72.2091 51.2679L58.6003 45.4697L63.6599 33.3071C63.9388 32.6356 64.3808 32.0442 64.9459 31.5865L69.7528 27.7001L79.6908 31.9344L80.2802 38.126C80.3491 38.8472 80.2397 39.5744 79.9617 40.2435L76.0311 49.6915C75.406 51.1951 73.6945 51.9014 72.2091 51.2679Z" fill="#FF3F62"/>
    <path d="M78.9005 31.303L74.1334 35.16C73.978 35.286 73.8331 35.4211 73.6994 35.5653C73.3611 35.9244 73.0881 36.3399 72.893 36.7931L67.7676 48.7002L54.8049 43.362C53.3041 42.7446 52.5999 41.0548 53.232 39.5868L57.1982 30.3727C57.3991 29.9068 57.6817 29.4805 58.0326 29.1141C58.1754 28.9636 58.3315 28.8222 58.4967 28.6927L63.3512 24.9L78.9005 31.303Z" fill="#FF728B"/>
    <path d="M74.0004 35.5367C73.6734 35.8974 73.4111 36.3118 73.2248 36.7617L70.8847 42.4002L55.8003 35.9581L58.1257 30.3559C58.3175 29.8934 58.5893 29.4683 58.9286 29.1001L74.0004 35.5367Z" fill="#FFA5B5"/>
    <path d="M79.5816 37.4021L79.0125 31.2001L74.4694 35.1593C73.9484 35.617 73.543 36.1915 73.2864 36.8358L68.4004 49.0558L71.8094 50.5678C73.2402 51.202 74.8887 50.4943 75.49 48.9893L79.2743 39.5238C79.5424 38.8509 79.6477 38.1235 79.5816 37.4021Z" fill="#FF0C38"/>
    <path d="M64.8555 37.071C64.894 38.0531 63.9364 38.7889 63.0236 38.4486C62.9818 38.4329 62.9406 38.4151 62.9004 38.3954C62.0212 37.974 61.8728 36.7679 62.5952 36.1092L64.1989 34.6469C64.2472 34.6029 64.3071 34.5737 64.3715 34.5627C64.4359 34.5518 64.5021 34.5595 64.5622 34.5851C64.6223 34.6107 64.6738 34.6531 64.7105 34.7071C64.7473 34.7611 64.7677 34.8245 64.7694 34.8898L64.8555 37.071ZM66.2178 26.9728L66.1688 27.0939L61.4507 30.9019C60.8967 31.3505 60.4632 31.9301 60.1893 32.5882L55.3138 44.3987L54.8448 44.1992C53.3874 43.5797 52.7027 41.8836 53.3167 40.4101L57.1702 31.1616C57.4444 30.5032 57.8784 29.9237 58.433 29.4753L63.1489 25.67C63.1489 25.6686 63.1503 25.6686 63.1503 25.6686L66.2178 26.9728Z" fill="#FF3F62"/>
    <path d="M61.4003 31.156C61.011 31.5589 60.7021 32.0324 60.4903 32.5511L58.2013 38.2002L55.1003 36.8576L57.4579 31.0923C57.652 30.6174 57.9278 30.18 58.2727 29.8001L61.4003 31.156Z" fill="#FF728B"/>
    <path d="M79.1784 31.9001L63.5003 25.6267L65.1643 21.8704C65.5955 20.8974 66.7757 20.4403 67.7998 20.8505L79.7685 25.64C80.7926 26.0495 81.2735 27.1709 80.8423 28.1439L79.1784 31.9001Z" fill="#FF3F62"/>
    <path d="M69.8004 20.6706L67.3994 26.3001L64.2003 25.0057L65.872 21.19C66.306 20.2009 67.4918 19.7368 68.5215 20.1526L69.8004 20.6706Z" fill="#FF0C38"/>
    <path d="M86 47L74.336 82.463C74.0891 83.2038 73.6149 83.8477 72.9807 84.3033C72.3465 84.7588 71.5848 85.0026 70.804 85H29.387C28.6091 85.0025 27.85 84.7605 27.2171 84.3081C26.5842 83.8557 26.1095 83.2159 25.86 82.479L14 47H86Z" fill="#7ED63E"/>
    <path d="M85 47L73.338 82.463C73.0912 83.2036 72.6171 83.8475 71.9831 84.303C71.3491 84.7585 70.5876 85.0024 69.807 85H35.383C34.6052 85.0024 33.8463 84.7604 33.2135 84.308C32.5808 83.8556 32.1063 83.2158 31.857 82.479L20 47H85Z" fill="#A4E276"/>
    <path d="M90 47C90 48.376 89.416 49.626 88.475 50.531C87.4886 51.477 86.1737 52.0036 84.807 52H15.193C12.337 52 10 49.751 10 47C10 45.626 10.584 44.375 11.525 43.469C12.5114 42.523 13.8263 41.9964 15.193 42H84.807C87.566 42 89.841 44.1 89.992 46.722C89.997 46.814 90 46.906 90 47Z" fill="#4E901E"/>
    <path d="M90 46H20.197C17.431 46 15.151 44.22 15 42H84.801C87.567 42 89.849 43.78 90 46Z" fill="#5EAC24"/>
    <path d="M54 20.443V44.555C54 45.449 53.65 46.265 53.078 46.879C52.7484 47.233 52.3494 47.5153 51.9058 47.7082C51.4623 47.9011 50.9837 48.0004 50.5 48C48.575 48 47 46.45 47 44.555V20.443C47 18.55 48.575 17 50.5 17C50.9837 16.9993 51.4624 17.0985 51.906 17.2914C52.3496 17.4843 52.7486 17.7667 53.078 18.121C53.65 18.733 54 19.551 54 20.443Z" fill="#47821C"/>
    <path d="M54 20.422V45.576C54 46.508 53.62 47.36 53 48C52.3625 47.3539 52.0035 46.4837 52 45.576V20.422C52 19.492 52.38 18.639 53 18C53.62 18.639 54 19.492 54 20.422Z" fill="#4E901E"/>
    <path d="M50 46C50.5523 46 51 45.5523 51 45C51 44.4477 50.5523 44 50 44C49.4477 44 49 44.4477 49 45C49 45.5523 49.4477 46 50 46Z" fill="#A4E276"/>
    <path d="M29 63H76L74.932 66H30.068L29 63Z" fill="#5EAC24"/>
    <path d="M32 74H74L72.9136 77H33.0864L32 74Z" fill="#5EAC24"/>
    <path d="M53 59L53 79L49 79L49 59L53 59Z" fill="#5EAC24"/>
</svg>
