<svg xmlns="http://www.w3.org/2000/svg" viewBox="0 0 512 512">
    <path fill="#78b9eb"
          d="M369.152 182.945l-7.494 22.316c-8.508 25.338-36.196 39.115-61.544 30.607l-18.176-6.107-127.011-42.623c-25.348-8.508-39.115-36.206-30.617-61.544l7.494-22.316c5.155-15.36 17.358-26.466 31.807-30.938 9.398-2.919 19.749-3.033 29.737.321l145.197 48.741c25.339 8.507 39.115 36.195 30.607 61.543z"/>
    <path fill="#5aaae7"
          d="M291.896 221.18l-9.957 8.581-127.011-42.623c-25.348-8.508-39.115-36.206-30.617-61.544l7.494-22.316c5.155-15.36 17.358-26.466 31.807-30.938l128.284 148.84z"/>
    <path fill="#c70024" d="M265.616 233.032l-84.719 73.023-12.794 11.023L11.976 135.954 24.78 124.92l84.719-73.023z"/>
    <path fill="#ff0c38" d="M265.616 233.032l-84.719 73.023L24.78 124.92l84.719-73.023z"/>
    <path fill="#a5001e"
          d="M118.421 62.972l-96.808 83.436c-4.896 4.213-12.359 3.664-16.582-1.232l-2.194-2.546c-4.223-4.896-3.664-12.359 1.232-16.582l7.659-6.604 89.139-76.832c4.854-4.182 12.203-3.685 16.447 1.076.052.052.104.104.145.155l2.184 2.546c4.222 4.898 3.674 12.36-1.222 16.583z"/>
    <path fill="#c70024"
          d="M117.313 43.689l-89.149 76.832c-4.844 4.182-12.193 3.674-16.437-1.076l89.139-76.832c4.855-4.182 12.204-3.685 16.447 1.076z"/>
    <circle cx="129.029" cy="173.516" r="45.563" fill="#a5001e"/>
    <path fill="#ffcd00"
          d="M161.17 171.02l-7.807-6.142 2.577-10.589a7.764 7.764 0 0 0-15.085-3.673l-1.738 7.14c-2.939-.709-6.418-1.252-10.212-1.252-9.98 0-23.814 3.744-33.043 21.582a7.764 7.764 0 0 0 2.293 9.82c.977.719 9.883 7.026 21.503 7.026 7.855 0 18.384-2.902 27.177-15.434l4.735 3.725a7.724 7.724 0 0 0 4.794 1.662 7.747 7.747 0 0 0 6.106-2.963 7.762 7.762 0 0 0-1.3-10.902zm-41.512 8.384c-1.958 0-3.832-.349-5.501-.841 3.971-4.384 8.846-6.534 14.748-6.534 1.359 0 2.67.115 3.898.299-3.831 4.702-8.231 7.076-13.145 7.076z"/>
    <path fill="#ff728b"
          d="M473.853 68.748L367.18 23.831c-9.128-3.843-19.643.442-23.486 9.57l-14.83 35.227a4.103 4.103 0 0 0-.004.002l-43.622 34.848a38.24 38.24 0 0 0-4.17 3.867 39.182 39.182 0 0 0-7.501 11.565l-35.641 84.658c-5.676 13.483.65 29.009 14.133 34.686l25.131 10.58-.001.002 123.506 51.995c13.484 5.676 29.017-.652 34.693-14.136l35.669-84.724a39.247 39.247 0 0 0 2.893-18.99l-5.354-55.523 14.828-35.222c3.842-9.131-.443-19.646-9.571-23.488z"/>
    <path fill="#ff3f62"
          d="M400.694 300.831l-123.506-51.995 45.917-109.068a39.248 39.248 0 0 1 11.673-15.432l43.627-34.851 90.187 37.969 5.354 55.526a39.234 39.234 0 0 1-2.893 18.99l-35.669 84.724c-5.673 13.484-21.206 19.814-34.69 14.137z"/>
    <path fill="#ff728b"
          d="M468.593 127.456l-42.838 35.439a38.265 38.265 0 0 0-3.901 3.72 38.946 38.946 0 0 0-7.248 11.285l-46.055 109.396-116.491-49.043c-13.483-5.676-19.809-21.203-14.133-34.686l35.641-84.658a39.182 39.182 0 0 1 7.501-11.565 38.042 38.042 0 0 1 4.17-3.867l43.622-34.848 139.732 58.827z"/>
    <path fill="#ffa5b5"
          d="M421.853 166.615a38.946 38.946 0 0 0-7.248 11.285l-21.856 51.916-140.901-59.319 21.719-51.588a39.182 39.182 0 0 1 7.501-11.565l140.785 59.271z"/>
    <path fill="#ff0c38"
          d="M473.951 182.976l-5.362-55.52-42.83 35.44a37.944 37.944 0 0 0-3.902 3.716 39.056 39.056 0 0 0-7.256 11.292l-46.049 109.395 32.138 13.528c13.487 5.682 29.023-.652 34.695-14.128l35.668-84.729a39.252 39.252 0 0 0 2.898-18.994z"/>
    <g fill="#ff3f62">
        <path d="M344.639 172.997c.358 8.991-8.499 15.723-16.942 12.609a13.273 13.273 0 0 1-1.142-.482c-8.128-3.862-9.504-14.902-2.822-20.93l14.836-13.384c1.988-1.794 5.166-.455 5.273 2.22l.797 19.967zM357.238 80.568l-.455 1.108-43.627 34.85a37.9 37.9 0 0 0-4.171 3.871 39.246 39.246 0 0 0-7.494 11.562L256.393 240.07l-4.337-1.822c-13.476-5.672-19.811-21.198-14.128-34.685l35.637-84.657a39.22 39.22 0 0 1 7.504-11.562 37.9 37.9 0 0 1 4.171-3.871l43.617-34.84c0-.01.01-.01.01-.01l28.371 11.945z"/>
    </g>
    <path fill="#ff728b"
          d="M309.875 119.476c-.311.3-.6.611-.89.921a39.246 39.246 0 0 0-7.494 11.562l-21.084 50.552-28.557-12.017 21.715-51.587a39.22 39.22 0 0 1 7.504-11.562l28.806 12.131z"/>
    <path fill="#ff3f62"
          d="M468.593 127.461L328.864 68.627l14.83-35.227c3.843-9.128 14.358-13.413 23.486-9.57l106.672 44.917c9.128 3.843 13.413 14.358 9.57 23.486l-14.829 35.228z"/>
    <path fill="#ff0c38"
          d="M378.53 28.609l-21.291 51.96-28.371-11.945 14.822-35.223c3.85-9.129 14.367-13.414 23.496-9.574l11.344 4.782z"/>
    <path fill="#7ed63e"
          d="M484.312 238.124l-73.975 227.422a23.558 23.558 0 0 1-22.398 16.271H125.273a23.558 23.558 0 0 1-22.367-16.168L27.688 238.124h456.624z"/>
    <path fill="#a4e276"
          d="M484.312 238.124l-73.975 227.422a23.558 23.558 0 0 1-22.398 16.271H169.584a23.558 23.558 0 0 1-22.367-16.168L72.009 238.124h412.303z"/>
    <path fill="#5eac24"
          d="M490.588 233.561a7.764 7.764 0 0 0-6.281-3.2H72.424a7.763 7.763 0 0 0 0 15.526h401.195l-27.982 86.029h-45.888l12.546-58.945a7.763 7.763 0 0 0-5.976-9.209 7.761 7.761 0 0 0-9.209 5.976l-13.234 62.178h-52.298l5.301-59.878a7.762 7.762 0 1 0-15.466-1.368l-5.422 61.246h-52.229v-60.562a7.763 7.763 0 0 0-15.526 0v60.562h-50.5l-5.422-61.246c-.378-4.271-4.156-7.421-8.417-7.049a7.764 7.764 0 0 0-7.049 8.417l5.301 59.878h-9.497a7.763 7.763 0 0 0 0 15.526h10.871l4.889 55.227H144.91l-11.755-55.227h8.446a7.763 7.763 0 0 0 0-15.526h-11.75l-13.234-62.178c-.893-4.193-5.012-6.874-9.209-5.976a7.762 7.762 0 0 0-5.976 9.209l12.546 58.945H66.872l-28.438-86.029h2.939a7.763 7.763 0 0 0 0-15.526h-13.68a7.766 7.766 0 0 0-7.371 10.199l75.211 227.53a31.268 31.268 0 0 0 29.736 21.49h28.526l.018.001.029-.001h206.042l.029.001.018-.001h28.004a31.244 31.244 0 0 0 29.784-21.632l23.045-70.854a7.763 7.763 0 0 0-14.765-4.801l-3.375 10.378H384.69l11.755-55.227h44.143l-4.983 15.32a7.763 7.763 0 0 0 14.765 4.802l41.319-127.039a7.766 7.766 0 0 0-1.101-6.966zM314.617 347.442l-4.889 55.227h-45.966v-55.227h50.855zm4.378 126.611l4.944-55.858h41.572l-11.89 55.858h-34.626zm-15.586 0h-39.647v-55.858h44.591l-4.944 55.858zm-93.091 0l-4.944-55.858h42.864v55.858h-37.92zM199.11 347.442h49.127v55.227H204l-4.89-55.227zm-9.322 70.753l4.944 55.858h-34.628l-11.889-55.858h41.573zm-72.506-70.753l11.755 55.227H90.26l-18.255-55.227h45.277zm-7.008 115.774l-14.882-45.022h36.95l11.89 55.858H125.27a15.766 15.766 0 0 1-14.996-10.836zm307.301-45.021l-14.619 44.949a15.753 15.753 0 0 1-15.019 10.908h-18.439l11.89-55.858h36.187zm-48.758-15.526h-43.502l4.889-55.227h50.369l-11.756 55.227z"/>
    <path fill="#4e901e"
          d="M512 238.124c0 9.14-3.737 17.451-9.761 23.465-6.024 6.024-14.335 9.761-23.475 9.761H33.236C14.957 271.35 0 256.404 0 238.125c0-9.14 3.737-17.451 9.761-23.475 6.024-6.024 14.335-9.761 23.475-9.761h445.528c17.658 0 32.221 13.963 33.184 31.383.031.61.052 1.231.052 1.852z"/>
    <path fill="#5eac24"
          d="M511.948 236.271H66.42c-17.658 0-32.211-13.963-33.173-31.383h445.518c17.657 0 32.22 13.963 33.183 31.383z"/>
    <path fill="#47821c"
          d="M278.543 68.251v157.794c0 5.848-2.256 11.189-5.941 15.205-4.13 4.502-10.05 7.339-16.602 7.339-12.4 0-22.543-10.144-22.543-22.543V68.251c0-12.39 10.144-22.533 22.543-22.533 6.2 0 11.841 2.536 15.919 6.624.228.228.455.466.683.714 3.685 4.006 5.941 9.358 5.941 15.195z"/>
    <path fill="#4e901e"
          d="M278.543 68.251v157.794c0 5.848-2.256 11.189-5.941 15.205-3.695-4.016-5.952-9.357-5.952-15.205V68.251c0-5.838 2.256-11.189 5.952-15.195 3.685 4.006 5.941 9.358 5.941 15.195z"/>
    <circle cx="255.999" cy="226.666" r="6.693" fill="#a4e276"/>
</svg>